<?xml version="1.0" standalone="no"?>
<!DOCTYPE svg PUBLIC "-//W3C//DTD SVG 20010904//EN"
 "http://www.w3.org/TR/2001/REC-SVG-20010904/DTD/svg10.dtd">
<svg version="1.0" xmlns="http://www.w3.org/2000/svg"
 width="1024.000000pt" height="1024.000000pt" viewBox="0 0 1024.000000 1024.000000"
 preserveAspectRatio="xMidYMid meet">
<metadata>
Created by potrace 1.14, written by Peter Selinger 2001-2017
</metadata>
<g transform="translate(0.000000,1024.000000) scale(0.100000,-0.100000)"
fill="#000000" stroke="none">
<path d="M4945 7118 c-18 -18 -20 -18 -32 -2 -7 10 -13 12 -13 6 0 -7 -9 -12
-21 -12 -13 0 -18 4 -13 12 4 7 3 8 -4 4 -7 -4 -12 -15 -13 -24 0 -11 -3 -12
-6 -4 -2 6 -13 12 -23 12 -10 0 -21 -6 -23 -12 -4 -10 -6 -10 -6 0 -1 8 -6 10
-13 5 -7 -4 -24 -9 -38 -11 -13 -2 -29 -9 -33 -15 -6 -7 -6 -4 -2 8 3 11 3 16
-1 12 -4 -4 -13 -2 -19 3 -9 8 -14 6 -18 -4 -4 -11 -1 -13 11 -10 13 4 12 2
-2 -7 -15 -9 -21 -9 -24 -1 -2 7 -8 12 -13 12 -6 0 -7 -4 -4 -10 3 -5 2 -10
-4 -10 -5 0 -13 5 -16 10 -10 16 -25 12 -25 -7 0 -16 2 -16 11 -3 8 11 10 12
7 1 -2 -8 -21 -16 -43 -18 -77 -7 -98 -12 -106 -25 -8 -12 -13 -4 -10 15 1 5
-3 6 -9 2 -6 -3 -8 -11 -5 -16 4 -5 1 -9 -5 -9 -6 0 -8 -6 -4 -12 4 -7 4 -10
-1 -6 -4 4 -17 3 -28 -3 -12 -7 -17 -7 -13 -1 3 5 -1 13 -10 16 -8 3 -12 2 -9
-4 3 -5 1 -18 -5 -27 -9 -14 -10 -14 -7 -2 3 9 -1 16 -8 16 -8 0 -13 -5 -12
-11 1 -6 -6 -10 -16 -9 -11 0 -16 -4 -14 -11 4 -9 -6 -12 -28 -11 -19 0 -32
-2 -29 -6 2 -4 -4 -13 -13 -20 -9 -8 -14 -9 -10 -2 4 6 2 10 -5 9 -20 -3 -39
-17 -34 -25 3 -4 -4 -13 -16 -20 -15 -9 -18 -9 -13 0 5 7 3 10 -6 7 -8 -3 -13
-11 -11 -17 2 -9 -3 -9 -20 0 -22 12 -22 11 -8 -6 9 -11 10 -16 3 -11 -8 4
-13 2 -13 -6 0 -9 -3 -9 -10 2 -8 13 -10 13 -10 -2 0 -12 -5 -15 -17 -11 -13
5 -15 2 -10 -12 7 -17 6 -17 -20 0 -24 16 -26 16 -14 2 9 -12 10 -17 2 -17 -7
0 -9 -5 -5 -11 4 -8 1 -8 -13 -1 -15 9 -20 8 -20 -3 0 -8 4 -12 8 -9 4 2 11
-1 15 -8 4 -7 4 -10 -1 -6 -4 4 -15 2 -23 -5 -11 -8 -14 -9 -9 0 5 8 1 11 -12
10 -11 0 -17 -6 -14 -14 3 -8 -2 -11 -17 -8 -19 4 -20 2 -8 -12 11 -15 11 -16
-5 -10 -15 6 -17 3 -12 -16 7 -21 6 -21 -7 -3 -12 15 -17 16 -23 6 -6 -9 -4
-11 5 -5 9 6 11 4 6 -4 -5 -7 -15 -10 -23 -6 -14 5 -14 3 -2 -12 9 -11 10 -14
2 -9 -7 4 -13 2 -13 -3 0 -6 -5 -11 -11 -11 -5 0 -7 5 -3 12 5 7 3 8 -5 4 -7
-5 -10 -14 -7 -22 3 -7 1 -16 -4 -19 -6 -4 -10 -1 -10 5 0 6 -5 8 -10 5 -6 -4
-8 -11 -5 -16 4 -5 -5 -14 -19 -20 -14 -7 -23 -16 -20 -20 3 -5 0 -9 -6 -9 -7
0 -9 -7 -6 -16 3 -8 2 -12 -3 -9 -6 3 -14 -3 -20 -12 -6 -10 -11 -13 -11 -7 0
5 5 15 12 22 9 9 9 12 0 12 -7 0 -12 -4 -12 -10 0 -5 -10 -19 -22 -30 -19 -18
-20 -22 -8 -30 8 -5 10 -10 5 -10 -6 0 -16 5 -22 11 -9 9 -11 5 -9 -15 3 -23
1 -24 -12 -14 -13 11 -15 10 -9 -5 4 -10 3 -16 -2 -13 -5 3 -14 -1 -21 -9 -7
-8 -16 -13 -20 -10 -5 3 -6 -5 -2 -17 3 -13 1 -19 -5 -15 -6 4 -14 0 -17 -9
-4 -10 -2 -13 6 -8 7 5 8 3 4 -5 -5 -7 -15 -10 -23 -7 -8 3 -12 2 -9 -3 7 -10
-18 -33 -28 -26 -3 3 -2 0 4 -7 6 -8 4 -15 -6 -22 -8 -6 -16 -21 -17 -33 0
-12 -5 -19 -9 -17 -5 3 -6 9 -3 14 3 5 1 11 -4 14 -5 4 -8 -2 -6 -11 4 -26
-14 -55 -28 -46 -7 4 -5 -2 3 -12 10 -13 11 -16 2 -11 -9 6 -12 3 -10 -10 2
-13 -2 -18 -12 -17 -10 2 -16 -5 -17 -17 -2 -21 -27 -53 -35 -45 -3 3 -5 -2
-5 -10 0 -8 4 -12 9 -9 4 3 8 0 8 -5 0 -6 -9 -11 -20 -11 -11 0 -20 -4 -20
-10 0 -5 5 -10 10 -10 6 0 10 -4 10 -10 0 -5 -8 -6 -17 -3 -16 6 -16 5 -4 -10
12 -15 12 -17 -2 -11 -12 4 -15 0 -13 -20 2 -19 0 -23 -8 -17 -8 7 -11 0 -11
-24 1 -28 -1 -32 -14 -25 -12 6 -16 3 -16 -15 0 -19 3 -21 15 -12 8 6 7 2 -3
-10 -11 -12 -16 -27 -12 -33 3 -6 3 -10 -2 -9 -19 3 -33 -2 -33 -12 0 -5 4 -8
8 -5 5 3 9 -1 9 -9 0 -8 -4 -12 -9 -9 -4 3 -8 -2 -8 -11 0 -9 -4 -14 -9 -10
-5 3 -12 1 -15 -4 -4 -5 -1 -13 5 -17 8 -5 9 -3 4 6 -6 9 -4 11 5 5 10 -6 7
-12 -10 -25 -17 -13 -20 -19 -10 -25 9 -6 11 -4 5 5 -5 9 -4 11 4 6 6 -4 9
-12 5 -17 -3 -5 -10 -7 -15 -4 -5 4 -9 -1 -9 -9 0 -9 -6 -16 -12 -16 -9 0 -8
-3 2 -10 13 -8 12 -11 -5 -23 -21 -16 -29 -68 -11 -79 7 -5 5 -8 -6 -8 -11 0
-15 -6 -11 -20 3 -13 0 -20 -8 -20 -11 0 -11 -2 1 -10 9 -6 11 -10 3 -10 -7 0
-10 -6 -7 -14 3 -8 1 -17 -5 -20 -6 -4 -7 -14 -4 -23 4 -10 2 -14 -4 -10 -12
7 -12 -17 -1 -29 10 -9 -3 -35 -14 -28 -6 4 -4 -4 2 -17 10 -18 10 -24 -3 -34
-14 -10 -14 -12 1 -22 15 -10 14 -12 -8 -21 -20 -9 -21 -11 -6 -11 15 -1 16
-4 6 -16 -13 -16 -4 -39 12 -29 7 5 8 2 4 -5 -5 -7 -14 -10 -21 -7 -10 3 -11
-2 -6 -22 10 -38 7 -57 -8 -54 -7 1 -10 -2 -6 -8 3 -6 11 -8 16 -5 5 4 9 1 9
-4 0 -6 -4 -11 -10 -11 -5 0 -7 -7 -3 -16 3 -9 0 -20 -8 -25 -8 -5 -9 -9 -4
-9 6 0 12 -11 13 -26 1 -17 -2 -23 -10 -18 -7 4 -8 3 -4 -5 6 -8 12 -9 20 -2
9 8 13 7 13 -4 0 -8 -6 -15 -14 -15 -7 0 -13 -4 -13 -10 0 -5 8 -7 18 -4 16 5
16 5 -1 -6 -9 -6 -22 -8 -29 -4 -7 4 -8 3 -4 -4 4 -7 15 -12 24 -12 15 0 15
-2 2 -10 -13 -9 -13 -10 0 -11 10 0 8 -3 -5 -9 -18 -8 -18 -9 5 -9 18 -1 21
-4 11 -10 -8 -5 -10 -14 -6 -21 5 -9 4 -11 -3 -6 -8 5 -10 2 -6 -9 5 -13 9
-13 23 -3 15 12 15 11 1 -6 -8 -11 -13 -21 -12 -23 2 -3 0 -8 -4 -11 -4 -4 -4
-1 1 7 5 10 4 12 -4 7 -15 -10 -5 -26 17 -27 12 0 11 -3 -5 -9 -28 -12 -30
-20 -3 -15 11 2 20 0 20 -6 0 -8 -15 -13 -33 -10 -5 1 -5 -3 -2 -9 4 -6 14 -9
24 -6 13 5 13 4 -2 -8 -16 -13 -16 -14 3 -19 21 -5 21 -6 3 -33 -10 -16 -13
-25 -6 -21 6 4 14 3 17 -2 4 -5 2 -12 -4 -16 -5 -3 -10 -12 -10 -18 0 -7 4 -6
10 3 8 13 10 13 10 -2 0 -9 -5 -20 -11 -23 -7 -5 -4 -14 7 -26 10 -11 12 -19
6 -19 -7 0 -12 -4 -12 -10 0 -5 7 -7 15 -4 8 4 15 1 15 -5 0 -6 -5 -11 -12
-11 -6 0 -4 -6 7 -13 10 -8 15 -19 11 -25 -4 -7 -2 -12 5 -12 7 0 4 -6 -7 -14
-19 -14 -19 -14 0 -13 16 2 20 -4 19 -35 0 -21 3 -35 8 -33 4 3 7 -4 6 -15 -1
-11 -6 -20 -11 -20 -5 0 -6 -3 -3 -6 4 -4 14 -1 24 7 11 9 14 10 9 2 -4 -8 -2
-13 6 -13 10 0 10 -2 1 -8 -7 -4 -9 -13 -4 -21 5 -7 6 -21 4 -31 -3 -11 2 -19
17 -23 19 -5 20 -8 10 -27 -10 -18 -9 -21 1 -15 9 6 11 4 6 -7 -3 -10 6 -29
24 -49 18 -20 26 -36 20 -42 -11 -11 7 -57 22 -57 5 0 3 8 -4 18 -13 15 -12
16 3 3 10 -7 15 -18 11 -24 -3 -5 2 -16 12 -24 11 -7 13 -13 7 -13 -7 0 -12
-5 -12 -12 0 -6 3 -9 6 -5 4 3 13 0 20 -8 16 -16 19 -29 4 -20 -5 3 -10 1 -10
-4 0 -6 10 -11 22 -11 21 0 21 0 2 -15 -16 -13 -16 -14 -1 -9 15 6 22 -4 18
-28 0 -5 4 -8 10 -8 5 0 7 -5 3 -12 -5 -8 -2 -9 11 -4 15 5 16 4 6 -8 -11 -13
-10 -15 7 -11 15 3 19 -2 16 -21 -1 -13 3 -27 8 -31 7 -3 8 -1 4 5 -4 7 -2 12
3 12 10 0 16 -21 12 -43 -1 -4 7 -7 16 -5 10 2 18 -3 19 -9 1 -7 3 -16 4 -20
1 -5 2 -12 1 -16 -1 -5 3 -6 9 -2 5 3 10 -1 10 -10 0 -9 5 -13 10 -10 6 3 10
1 10 -5 0 -6 4 -9 9 -6 5 3 8 -2 7 -12 0 -9 9 -21 22 -27 12 -5 20 -15 18 -22
-3 -7 0 -15 6 -19 7 -5 8 -2 3 6 -5 9 -4 11 3 6 7 -4 12 -14 12 -22 0 -8 5
-14 11 -14 5 0 7 5 3 12 -4 7 -3 8 4 4 6 -4 8 -14 5 -23 -5 -13 -2 -15 15 -11
12 4 20 2 17 -2 -3 -5 3 -14 12 -20 16 -10 16 -11 1 -6 -10 3 -20 1 -23 -5 -4
-5 -3 -9 2 -8 23 4 43 -2 38 -11 -4 -6 -1 -9 7 -8 7 2 12 -4 10 -12 -3 -12 -1
-13 9 -2 7 6 17 12 23 12 6 0 6 -4 -1 -11 -13 -13 15 -52 30 -42 6 4 8 0 4 -9
-4 -12 0 -15 18 -14 16 2 22 -1 18 -10 -3 -9 2 -14 16 -14 12 0 21 -5 21 -11
0 -5 5 -7 12 -3 6 4 8 3 4 -4 -8 -13 20 -42 40 -42 9 0 22 -7 31 -15 8 -8 18
-13 23 -10 4 3 14 -3 21 -13 13 -15 12 -16 -3 -4 -11 9 -18 10 -23 2 -4 -6 -3
-10 2 -9 17 3 53 -14 53 -25 0 -6 5 -4 10 4 7 11 10 12 10 2 0 -9 8 -11 23 -8
12 3 16 3 10 0 -19 -9 -16 -21 8 -27 13 -4 18 -10 13 -18 -4 -8 -3 -10 5 -5 6
4 9 12 6 17 -4 5 -1 9 4 9 6 0 11 -10 11 -21 0 -19 2 -20 17 -8 14 12 16 12 8
0 -6 -11 -4 -13 9 -8 10 4 19 1 22 -8 4 -8 13 -15 21 -15 8 0 12 -4 9 -8 -3
-5 1 -9 9 -9 8 0 12 4 9 9 -3 4 0 8 5 8 6 0 11 -10 12 -22 0 -13 3 -17 6 -10
2 6 9 12 15 12 6 0 8 -6 5 -13 -3 -8 0 -14 6 -15 28 -2 46 -9 61 -21 8 -7 21
-9 28 -5 7 5 19 9 26 10 11 2 11 0 0 -13 -12 -15 -10 -15 12 -3 23 12 24 12
11 -3 -17 -22 -3 -22 29 0 14 9 19 10 13 3 -18 -19 -16 -35 1 -21 11 9 16 9
22 0 5 -8 3 -10 -7 -4 -8 5 -10 4 -6 0 14 -17 36 -14 30 3 -4 12 -1 11 10 -3
8 -11 14 -22 12 -26 -6 -8 28 -5 43 5 7 4 12 2 12 -5 0 -9 3 -9 14 0 11 9 16
9 22 0 5 -8 3 -9 -6 -4 -8 5 -11 4 -7 -3 4 -5 16 -8 27 -5 11 3 18 9 15 12 -2
4 2 8 10 8 8 0 11 -5 7 -11 -12 -20 -10 -35 4 -29 8 3 12 9 9 13 -3 5 0 12 6
16 7 4 10 3 6 -2 -3 -5 1 -18 9 -29 8 -10 14 -14 14 -7 0 6 9 9 20 7 14 -3 20
2 20 13 0 14 2 15 9 2 6 -8 8 -17 6 -20 -2 -3 5 -6 15 -6 14 0 16 3 8 13 -15
18 -3 16 16 -3 11 -11 16 -12 16 -3 0 7 7 5 16 -7 8 -10 13 -13 9 -6 -3 6 -1
12 5 12 6 0 8 5 4 12 -5 7 -3 8 5 4 7 -5 10 -14 7 -22 -3 -9 0 -11 11 -7 10 4
14 2 10 -4 -8 -13 18 -11 30 1 4 4 2 6 -6 4 -7 -2 -16 3 -18 10 -4 11 -1 12
16 3 11 -7 21 -15 21 -19 0 -5 11 -8 24 -8 14 0 22 4 20 8 -3 5 -9 6 -14 3 -4
-3 -14 3 -21 13 -12 15 -12 16 1 6 8 -6 28 -11 43 -10 16 1 31 -3 34 -8 4 -5
1 -6 -7 -1 -9 5 -11 4 -6 -3 10 -17 26 -15 26 3 0 8 5 15 11 15 5 0 7 -5 3
-12 -5 -8 -2 -9 9 -5 10 3 17 3 17 -1 0 -4 10 -8 23 -9 22 -2 22 -2 -3 18
l-25 20 25 -12 c14 -7 30 -19 36 -27 9 -12 13 -12 19 -2 5 8 4 11 -2 7 -5 -3
-10 0 -10 8 0 9 4 11 11 6 6 -5 19 -7 29 -6 9 2 15 -1 11 -6 -3 -5 -10 -6 -16
-3 -7 5 -8 2 -3 -6 6 -10 12 -8 27 9 l18 23 0 -23 c0 -22 1 -22 13 -4 11 14
16 15 22 5 6 -9 4 -11 -5 -5 -9 5 -11 4 -6 -4 4 -6 12 -9 17 -5 5 3 7 9 4 14
-3 5 -1 11 5 15 9 6 14 -8 11 -28 -1 -5 3 -6 9 -2 6 3 7 12 3 18 -4 7 2 5 12
-3 17 -14 18 -13 12 2 -4 12 -2 15 8 11 8 -3 13 -8 10 -12 -2 -4 3 -8 11 -8 8
0 13 6 10 12 -3 8 4 10 20 7 13 -2 24 -9 24 -15 0 -6 3 -7 6 -4 4 4 2 12 -4
20 -8 10 -6 13 8 13 10 0 16 -4 14 -8 -8 -13 11 -9 25 5 8 6 11 7 8 1 -4 -6 3
-10 16 -8 12 1 26 3 30 3 5 1 6 5 2 10 -3 5 -1 12 4 15 5 4 13 1 17 -5 4 -8 3
-9 -4 -5 -8 5 -10 1 -5 -10 4 -11 8 -13 11 -6 2 7 9 9 14 6 6 -4 17 1 24 11 9
12 27 17 61 18 34 0 53 5 67 19 10 11 21 16 25 11 3 -4 15 -9 26 -11 l20 -4
-20 16 c-19 15 -19 15 4 9 17 -4 22 -3 17 5 -5 8 -1 10 10 5 13 -5 15 -3 9 8
-7 11 -5 11 10 -1 17 -14 18 -13 11 4 -7 19 -6 19 13 2 18 -17 20 -17 29 0 8
15 13 16 25 6 12 -10 14 -8 12 13 -2 14 1 28 6 31 5 3 9 2 8 -3 -5 -26 1 -35
16 -23 8 6 20 8 27 4 9 -6 9 -3 -1 10 -8 9 -10 16 -5 15 16 -4 44 13 38 23 -4
6 2 6 14 -1 17 -9 21 -7 25 11 5 18 8 19 22 8 9 -7 15 -9 14 -4 -4 21 2 28 11
14 8 -13 10 -12 10 3 0 9 4 17 10 17 5 0 6 -8 3 -17 -5 -12 -1 -11 15 5 12 12
27 22 34 22 6 0 9 3 5 6 -3 4 4 15 16 24 21 17 23 17 42 2 19 -16 19 -16 6 1
-9 11 -10 17 -2 18 6 1 17 2 24 3 6 1 11 9 11 19 -1 13 4 16 23 13 19 -4 22
-2 14 8 -9 11 -6 13 11 12 14 -1 22 4 20 12 -1 7 5 20 14 30 15 15 16 14 10
-8 l-7 -25 14 23 c7 12 17 19 22 15 5 -4 3 0 -4 10 -12 15 -12 17 4 11 12 -5
16 -4 11 4 -3 6 -1 14 5 18 8 4 9 3 5 -4 -9 -15 14 -15 34 -1 13 9 12 10 -2 5
-10 -3 -18 -1 -18 4 0 6 7 10 15 10 8 0 15 5 15 11 0 6 7 9 14 6 11 -4 13 -1
9 11 -6 15 -5 16 12 2 17 -14 18 -14 7 7 -11 20 -10 21 9 18 16 -3 19 0 15 12
-4 10 -2 14 7 10 15 -6 67 44 67 63 0 7 7 10 16 6 9 -4 13 -2 8 5 -4 6 0 15 7
20 12 8 12 11 -1 19 -12 8 -9 9 12 6 21 -4 26 -1 21 11 -4 10 -2 14 5 9 6 -3
14 -1 18 5 4 7 3 9 -4 5 -6 -3 -14 -1 -18 5 -5 8 1 10 20 7 22 -4 24 -3 14 9
-6 8 -7 13 -2 12 21 -4 28 2 14 12 -12 9 -11 10 8 6 12 -3 22 -1 22 4 0 5 -6
9 -12 9 -10 0 -9 3 1 9 8 5 10 14 5 22 -6 12 -5 12 9 0 10 -8 17 -9 17 -3 0 6
-5 14 -10 17 -6 4 -8 11 -4 16 3 6 12 5 22 -3 10 -7 14 -8 10 -4 -4 5 0 15 10
23 9 8 11 12 5 8 -7 -3 -13 -1 -13 4 0 6 6 11 14 11 8 0 18 5 22 12 4 7 3 8
-4 4 -7 -4 -12 -2 -12 3 0 6 7 11 16 11 8 0 13 4 10 9 -8 13 4 42 14 36 5 -3
11 -1 15 5 3 5 0 10 -7 11 -7 1 -2 5 12 9 21 7 22 8 5 9 -16 2 -15 5 10 17 17
8 22 12 12 9 -12 -3 -17 -1 -15 7 3 7 11 13 18 13 7 0 15 7 17 15 4 12 3 12
-5 1 -6 -8 -12 -9 -16 -3 -7 12 21 24 37 16 7 -3 3 2 -7 10 -19 15 -19 16 -2
16 16 0 17 2 5 17 -13 15 -12 15 11 3 21 -10 23 -10 13 1 -15 15 -17 33 -4 25
5 -3 12 1 15 10 4 10 2 13 -6 8 -7 -5 -8 -3 -4 5 5 7 15 10 23 6 13 -4 14 -3
4 9 -8 10 -9 16 -1 21 5 3 10 15 10 26 0 10 5 19 10 19 6 0 10 9 10 21 0 13 4
18 13 13 9 -6 9 -5 0 7 -10 13 -10 19 3 35 8 10 13 14 10 7 -4 -6 -2 -14 3
-18 10 -6 7 27 -4 45 -3 6 1 10 9 10 8 0 18 5 22 12 4 7 3 8 -4 4 -7 -4 -12
-3 -12 3 0 5 9 12 20 16 16 5 17 9 7 20 -6 7 -16 10 -21 7 -5 -3 -6 0 -2 7 4
6 11 9 15 6 5 -2 13 7 19 20 8 18 8 26 0 31 -7 5 -8 3 -3 -6 5 -9 4 -11 -3 -6
-13 8 5 46 21 46 5 0 6 7 3 16 -3 8 -2 12 3 9 6 -3 8 6 5 21 -4 22 -2 25 13
20 16 -5 16 -4 3 7 -8 6 -16 18 -18 26 -3 12 0 12 13 1 13 -11 15 -10 9 4 -3
9 -11 16 -17 16 -6 0 -7 3 -4 6 4 4 12 2 19 -4 10 -8 13 -3 14 24 1 19 -4 34
-10 34 -6 0 -4 4 4 9 8 6 18 7 24 4 5 -3 6 -1 2 6 -4 6 -11 9 -16 6 -4 -3 -11
2 -14 11 -3 8 -2 12 4 9 6 -3 10 0 10 9 0 8 3 16 8 19 4 2 1 2 -5 1 -7 -2 -13
2 -12 9 1 20 14 49 22 48 4 -1 6 2 5 7 -2 4 -6 6 -10 5 -3 -1 -9 4 -12 12 -3
9 0 12 10 8 20 -7 18 7 -3 23 -16 12 -16 12 5 7 18 -4 21 -2 16 12 -4 10 -1
21 7 26 11 7 11 9 1 9 -7 0 -11 4 -8 8 2 4 0 14 -6 22 -8 12 -9 12 -4 -3 3
-10 2 -15 -3 -12 -14 8 -9 46 6 41 7 -3 10 1 6 9 -3 8 -9 13 -13 10 -5 -3 -12
0 -16 6 -4 7 -3 9 3 6 6 -4 16 0 23 8 10 12 9 16 -2 20 -8 3 -15 12 -15 20 0
11 4 12 14 3 11 -8 12 -7 7 6 -3 9 -9 16 -13 16 -4 0 -8 7 -8 15 0 11 4 12 14
3 11 -8 12 -7 7 6 -3 9 -11 16 -18 17 -6 0 -2 4 9 9 l20 9 -20 0 c-17 1 -17 3
-5 11 12 8 12 10 -5 11 -11 0 -14 3 -7 6 6 2 12 9 12 14 0 6 -4 7 -10 4 -5 -3
-10 -1 -10 4 0 6 8 11 18 11 14 0 15 2 2 10 -11 7 -12 10 -2 10 10 0 10 4 -2
16 -20 19 -21 28 -3 21 8 -3 14 1 14 8 0 8 -4 13 -9 12 -5 -1 -11 27 -13 63
-4 78 -11 111 -26 120 -7 5 -5 10 7 14 16 6 15 8 -4 27 -25 22 -30 38 -7 19
20 -16 19 -6 -1 14 -9 9 -11 16 -4 16 6 0 8 5 5 10 -4 6 -12 7 -18 4 -7 -4 -9
-4 -5 1 4 4 3 17 -3 28 -7 12 -7 17 -1 13 5 -3 13 1 16 10 3 8 2 13 -2 11 -4
-3 -13 1 -20 9 -10 11 -10 14 0 14 9 0 9 3 -2 10 -18 11 -20 30 -6 49 8 11 8
13 -1 7 -8 -4 -13 -1 -13 8 0 9 -6 16 -12 16 -9 0 -8 4 2 10 13 9 7 14 -12 11
-5 0 -8 3 -8 9 0 5 6 10 13 10 6 1 3 6 -8 13 -13 7 -20 22 -20 39 1 14 -7 32
-16 39 -10 7 -14 20 -11 32 4 14 2 18 -7 12 -10 -6 -11 -3 -1 15 11 20 10 22
-3 17 -9 -3 -21 1 -28 9 -10 12 -9 13 3 9 9 -4 15 0 15 10 0 10 -6 14 -15 10
-10 -3 -12 0 -8 10 3 8 1 15 -4 15 -5 0 -7 7 -4 15 5 11 2 13 -10 9 -9 -4 -16
-3 -15 2 4 23 -2 45 -11 39 -5 -3 -10 3 -10 14 0 10 -6 22 -12 24 -10 4 -10 6
0 6 6 1 12 6 12 11 0 7 -8 6 -22 -1 -21 -11 -22 -11 -9 4 10 13 10 17 1 17 -7
0 -10 7 -6 16 6 15 4 15 -11 3 -10 -7 -15 -9 -10 -4 4 4 -1 17 -10 27 -15 17
-15 20 -3 28 12 8 9 10 -10 10 -18 0 -21 3 -11 9 17 11 6 32 -13 25 -7 -3 -16
2 -20 11 -3 9 -2 13 3 10 5 -3 13 -1 16 5 4 6 3 10 -2 9 -21 -4 -44 2 -39 10
3 5 -4 11 -16 14 -17 5 -19 9 -9 21 10 11 8 17 -10 30 -12 8 -27 12 -33 9 -6
-4 -5 1 3 10 12 16 12 17 -5 11 -10 -4 -16 -4 -12 0 9 11 -15 35 -27 28 -5 -3
-3 3 5 13 8 10 10 16 3 12 -6 -4 -14 -3 -18 3 -4 6 -12 7 -18 4 -7 -4 -9 -4
-5 0 9 11 -15 35 -27 28 -5 -3 -3 3 5 13 9 11 10 16 3 11 -7 -4 -21 -2 -30 4
-16 11 -16 11 -1 6 10 -3 20 -2 22 3 3 4 -1 8 -9 9 -8 1 -22 3 -30 4 -8 1 -14
8 -13 17 2 10 -8 18 -27 22 -16 4 -23 7 -15 8 13 1 13 3 0 10 -8 6 -18 7 -22
5 -5 -3 -7 0 -6 8 2 7 -3 12 -9 11 -7 -2 -13 3 -13 11 0 10 -7 13 -21 11 -18
-4 -19 -2 -7 12 12 15 11 15 -12 3 -23 -12 -24 -12 -11 3 9 12 10 17 2 17 -7
0 -9 5 -5 13 5 8 2 8 -9 -2 -15 -12 -17 -11 -17 4 0 12 -5 15 -16 11 -12 -4
-15 -2 -11 9 4 8 1 17 -5 21 -7 4 -8 3 -4 -4 4 -7 2 -12 -3 -12 -10 0 -15 14
-12 33 1 4 -8 3 -20 -4 -17 -8 -20 -8 -14 1 5 9 1 10 -16 5 -24 -7 -24 -7 -4
9 16 13 17 15 3 10 -11 -4 -18 -1 -18 6 0 10 -3 10 -14 1 -11 -9 -16 -9 -22 0
-4 8 -3 9 4 5 7 -4 12 -2 12 3 0 6 -5 11 -11 11 -5 0 -8 4 -5 8 3 5 -1 9 -9 9
-8 0 -12 -4 -9 -9 8 -13 -1 -10 -47 17 -24 14 -41 25 -37 25 4 0 -3 10 -15 23
-18 18 -25 20 -35 10 -25 -24 -38 -13 -33 26 2 8 -2 10 -11 5 -17 -11 -48 -12
-48 -2 0 4 5 8 12 8 6 0 8 3 5 6 -4 4 -13 1 -21 -5 -11 -9 -16 -9 -22 0 -5 8
-3 10 7 5 8 -4 6 -1 -5 8 -14 12 -24 13 -39 5 -12 -7 -17 -7 -13 -1 3 5 -1 13
-10 16 -9 4 -13 2 -8 -5 4 -8 0 -7 -15 0 -11 7 -21 17 -21 24 0 8 -4 7 -10 -3
-8 -12 -11 -12 -28 3 -24 22 -38 22 -21 0 13 -17 12 -17 -6 -2 -11 9 -26 14
-34 11 -10 -3 -12 0 -8 12 6 14 3 15 -13 6 -11 -6 -20 -7 -20 -3 0 4 -5 1 -11
-7 -8 -12 -9 -11 -5 6 4 14 2 21 -8 21 -9 0 -13 -4 -10 -9 8 -13 -6 -9 -21 6
-8 7 -11 17 -7 21 4 5 2 5 -5 1 -7 -4 -10 -14 -7 -24 3 -9 -2 -6 -11 8 -9 14
-14 17 -11 8 3 -10 1 -20 -5 -23 -5 -4 -9 -3 -8 2 3 19 -2 33 -12 33 -5 0 -7
-4 -4 -10 3 -5 1 -10 -4 -10 -6 0 -11 4 -11 9 0 5 -9 11 -20 14 -11 3 -18 2
-15 -3 3 -4 -2 -11 -11 -14 -8 -3 -13 -2 -10 3 3 5 -1 12 -10 15 -8 3 -13 2
-9 -3 3 -5 -3 -8 -12 -7 -10 2 -21 -1 -24 -6 -3 -5 -9 -2 -12 7 -5 11 -3 14 6
9 6 -4 9 -3 4 1 -4 5 -16 9 -27 10 -15 1 -17 -1 -8 -12 8 -11 7 -12 -6 -7 -9
3 -16 10 -16 16 0 5 -5 6 -10 3 -6 -4 -8 -11 -5 -16 3 -5 -1 -6 -9 -3 -9 3
-16 9 -16 13 0 4 -7 8 -15 8 -8 0 -12 -4 -9 -8 2 -4 -1 -11 -7 -15 -7 -4 -9
-3 -6 3 4 6 0 16 -8 23 -12 10 -16 8 -24 -11 -7 -18 -10 -19 -10 -6 -1 18 -14
20 -46 8 -12 -5 -32 -3 -51 4 -34 14 -61 5 -50 -16 4 -8 0 -5 -8 5 -9 11 -16
15 -16 9 0 -7 -9 -11 -19 -10 -11 0 -18 4 -16 7 2 4 -2 7 -10 7 -8 0 -12 -4
-10 -8 3 -3 -2 -12 -9 -18 -11 -9 -16 -9 -22 0 -4 7 -3 9 4 5 13 -8 23 6 14
21 -5 6 -14 3 -27 -9z m-451 -86 c3 -5 -1 -9 -9 -9 -8 0 -12 4 -9 9 3 4 7 8 9
8 2 0 6 -4 9 -8z m1534 -107 c-3 -3 -9 2 -12 12 -6 14 -5 15 5 6 7 -7 10 -15
7 -18z m-2398 -469 c0 -2 -7 -7 -16 -10 -8 -3 -12 -2 -9 4 6 10 25 14 25 6z
m3045 -26 c3 -6 -1 -7 -9 -4 -18 7 -21 14 -7 14 6 0 13 -4 16 -10z m-3470
-740 c3 -5 -1 -10 -10 -10 -9 0 -13 5 -10 10 3 6 8 10 10 10 2 0 7 -4 10 -10z
m-10 -29 c3 -5 2 -12 -3 -15 -5 -3 -9 1 -9 9 0 17 3 19 12 6z m3902 -938 c0
-9 -4 -10 -14 -2 -7 6 -13 12 -13 14 0 1 6 2 13 2 8 0 14 -6 14 -14z m-3927
-59 c0 -8 -19 -13 -24 -6 -3 5 1 9 9 9 8 0 15 -2 15 -3z m125 -412 c-3 -3 -11
0 -18 7 -9 10 -8 11 6 5 10 -3 15 -9 12 -12z m3235 -612 c-12 -23 -16 -24 -26
-8 -4 6 -3 8 3 5 6 -4 13 0 17 8 3 8 8 15 11 15 3 0 1 -9 -5 -20z m-2593 -185
c0 -8 -4 -12 -9 -9 -5 3 -6 10 -3 15 9 13 12 11 12 -6z m2193 -114 c0 -5 -7
-12 -16 -15 -14 -5 -15 -4 -4 9 14 17 20 19 20 6z m-1765 -110 c-3 -6 3 -14
12 -20 10 -6 13 -11 7 -11 -15 0 -36 25 -27 33 10 10 15 8 8 -2z m1322 -74 c0
-8 -6 -14 -14 -14 -9 0 -10 4 -2 14 6 7 12 13 14 13 1 0 2 -6 2 -13z m-1112
-7 c3 -6 -1 -7 -9 -4 -18 7 -21 14 -7 14 6 0 13 -4 16 -10z m995 -30 c0 -5 -4
-10 -10 -10 -5 0 -10 5 -10 10 0 6 5 10 10 10 6 0 10 -4 10 -10z"/>
<path d="M5145 7130 c-3 -6 1 -7 9 -4 18 7 21 14 7 14 -6 0 -13 -4 -16 -10z"/>
<path d="M5396 7127 c3 -10 9 -15 12 -12 3 3 0 11 -7 18 -10 9 -11 8 -5 -6z"/>
<path d="M4746 7112 c-3 -5 1 -9 9 -9 8 0 12 4 9 9 -3 4 -7 8 -9 8 -2 0 -6 -4
-9 -8z"/>
<path d="M4560 7070 c-9 -6 -10 -10 -3 -10 6 0 15 5 18 10 8 12 4 12 -15 0z"/>
<path d="M4155 6910 c3 -5 8 -10 11 -10 2 0 4 5 4 10 0 6 -5 10 -11 10 -5 0
-7 -4 -4 -10z"/>
<path d="M6071 6916 c2 -2 15 -9 29 -15 24 -11 24 -11 6 3 -16 13 -49 24 -35
12z"/>
<path d="M6787 6269 c7 -7 15 -10 18 -7 3 3 -2 9 -12 12 -14 6 -15 5 -6 -5z"/>
<path d="M6990 5879 c0 -5 5 -7 10 -4 6 3 10 8 10 11 0 2 -4 4 -10 4 -5 0 -10
-5 -10 -11z"/>
<path d="M7033 5755 c0 -8 4 -12 9 -9 4 3 8 9 8 15 0 5 -4 9 -8 9 -5 0 -9 -7
-9 -15z"/>
<path d="M3127 5539 c7 -7 15 -10 18 -7 3 3 -2 9 -12 12 -14 6 -15 5 -6 -5z"/>
<path d="M3093 5225 c0 -8 4 -12 9 -9 5 3 6 10 3 15 -9 13 -12 11 -12 -6z"/>
<path d="M3282 4210 c7 -11 17 -20 22 -20 5 0 1 9 -9 20 -10 11 -20 20 -22 20
-2 0 2 -9 9 -20z"/>
<path d="M5798 3163 c7 -3 16 -2 19 1 4 3 -2 6 -13 5 -11 0 -14 -3 -6 -6z"/>
</g>
</svg>
